<svg width="510" height="126" viewBox="0 0 510 126" fill="none" xmlns="http://www.w3.org/2000/svg">
<path fill-rule="evenodd" clip-rule="evenodd" d="M509.37 64.47H493.26V0H509.37V64.47Z" fill="#A49B94"/>
<path fill-rule="evenodd" clip-rule="evenodd" d="M345.2 0H360.94V64.47H345.2V0Z" fill="#A49B94"/>
<path fill-rule="evenodd" clip-rule="evenodd" d="M363.94 0H379.68V64.47H363.94V0Z" fill="#A49B94"/>
<path fill-rule="evenodd" clip-rule="evenodd" d="M382.31 0H398.05V64.47H382.31V0Z" fill="#A49B94"/>
<path fill-rule="evenodd" clip-rule="evenodd" d="M401.05 0H416.42V64.47H401.05V0Z" fill="#A49B94"/>
<path fill-rule="evenodd" clip-rule="evenodd" d="M419.42 0H434.78V64.47H419.42V0Z" fill="#A49B94"/>
<path fill-rule="evenodd" clip-rule="evenodd" d="M437.78 0H453.53V64.47H437.78V0Z" fill="#A49B94"/>
<path fill-rule="evenodd" clip-rule="evenodd" d="M456.52 0H471.89V64.47H456.52V0Z" fill="#A49B94"/>
<path fill-rule="evenodd" clip-rule="evenodd" d="M474.52 0H490.63V64.47H474.52V0Z" fill="#A49B94"/>
<path d="M411.17 67.46L404.05 79.46H411.17V67.46Z" fill="#249DE3"/>
<path d="M462.9 82.46H443.78V94.83H462.9V82.46Z" fill="#249DE3"/>
<path d="M462.9 97.82H443.78V110.19H462.9V97.82Z" fill="#249DE3"/>
<path d="M462.9 67.46H454.65V79.45H462.9V67.46Z" fill="#249DE3"/>
<path d="M390.18 67.46H375.19L382.31 79.46L390.18 67.46Z" fill="#249DE3"/>
<path d="M506.75 64.46H506.38V67.46H484.64V79.46H506.38V82.46H484.64V94.83H506.38V97.82H484.64V110.19H506.38V113.19H500.75V122.3H462.9V113.19H443.78V122.3H421.67V113.19H393.55V122.3H371.81V113.19H348.2V110.19H371.81V97.82H348.2V94.83H369.78L362.82 82.46H348.2V79.46H360.94L353.82 67.46H348.2V64.46H347.82H345.2V67.46V71.59V77.58V79.46V82.46V84.71V93.33V94.45V97.82V100.45V107.94V110.19V113.19V114.69V118.47V122.3V125.19H509.37V122.3V118.47V115.82V112.82V109.82V108.69V100.45V97.45V94.83V93.33V84.33V82.46V79.46V77.58V71.21V67.09V64.46H506.75Z" fill="#249DE3"/>
<path d="M421.66 97.82H393.55V110.19H421.66V97.82Z" fill="#249DE3"/>
<path d="M421.67 82.46H402.55L395.43 94.83H421.67V82.46Z" fill="#249DE3"/>
<path d="M166.09 116.43V125.18H163.38V116.43L156 103.06H159.01L163.03 110.36C163.6 111.4 164.28 112.71 164.73 113.87H164.91C165.33 112.74 166.13 111.4 166.7 110.36L170.69 103.06H173.49L166.09 116.43Z" fill="#249DE3"/>
<path d="M186.01 105.5V125.18H183.27V105.5H176.45V103.06H192.83V105.5H186.01Z" fill="#249DE3"/>
<path d="M196.23 125.18V103.06H198.97V122.77H209.09V125.18H196.23Z" fill="#249DE3"/>
<path d="M228.92 125.6C224.01 125.6 220.14 123.43 220.14 116.07V112.17C220.14 104.4 224.58 102.7 228.95 102.7C232.17 102.7 235.11 103.21 235.44 103.27V105.47C234.13 105.35 230.59 105.14 229.34 105.14C225.59 105.14 222.91 106.12 222.91 112.17V116.07C222.91 121.7 225.2 123.1 229.28 123.1C230.56 123.1 231.81 123.07 232.7 123.01V113.69H235.44V124.98C234.55 125.15 231.96 125.6 228.92 125.6Z" fill="#249DE3"/>
<path d="M253.99 125.18L248.78 116.54C248.18 116.57 247.35 116.57 246.7 116.57H244.14V125.18H241.4V103.06H246.61C251.73 103.06 255.84 104.13 255.84 109.82C255.84 113.36 254.26 115.09 251.7 115.98L257.24 125.18H253.99ZM246.61 105.5H244.14V114.16H246.7C251.02 114.16 253.07 113.3 253.07 109.81C253.07 106.12 250.9 105.5 246.61 105.5Z" fill="#249DE3"/>
<path d="M269.06 125.6C263.55 125.6 260.51 122.03 260.51 115.71V112.55C260.51 106.24 263.55 102.69 269.06 102.69C274.57 102.69 277.61 106.23 277.61 112.55V115.71C277.6 122.02 274.57 125.6 269.06 125.6ZM274.83 112.55C274.83 107.13 272.45 105.14 269.05 105.14C265.66 105.14 263.27 107.14 263.27 112.55V115.71C263.27 121.13 265.65 123.15 269.05 123.15C272.44 123.15 274.83 121.13 274.83 115.71V112.55Z" fill="#249DE3"/>
<path d="M290.4 125.6C285.07 125.6 282.36 122.38 282.36 115.98V103.06H285.1V115.69C285.1 121.05 286.35 123.13 290.4 123.13C294.42 123.13 295.7 121.02 295.7 115.69V103.06H298.41V115.98C298.41 122.38 295.7 125.6 290.4 125.6Z" fill="#249DE3"/>
<path d="M306.79 116.57V125.18H304.05V103.06C305.48 103.06 306.91 103.03 308.28 103.03C313.85 103.03 318.46 103.36 318.49 109.97C318.5 116.54 313.17 116.57 306.79 116.57ZM308.25 105.5H306.79V114.16H307.68C313.01 114.16 315.72 114.04 315.72 109.96C315.7 105.62 313.2 105.5 308.25 105.5Z" fill="#249DE3"/>
<path d="M36.2 82.46H25.89L21.94 64.65C21.58 62.98 21.26 61.07 20.99 59.5H20.85C20.58 61.06 20.26 62.98 19.9 64.65L15.99 82.46H5.63L0 44.97H8.45001L11.22 65.46C11.54 67.88 11.81 70.46 12.04 72.63H12.22C12.67 70.41 13.08 68.09 13.54 65.97L16.58 52.04H25.35L28.39 66.07C28.84 68.14 29.3 70.46 29.71 72.63H29.89C30.07 70.41 30.34 68.04 30.66 65.46L33.48 44.97H41.84L36.2 82.46Z" fill="#353535"/>
<path d="M50.7599 70.45V70.85C50.7599 74.63 51.2099 76.7 56.7999 76.7C59.4299 76.7 62.1599 76.5 66.5199 76.14V81.94C64.5199 82.5 60.8899 83.2 56.4399 83.2C46.9499 83.2 42.95 79.52 42.95 68.97V67.41C42.95 57.37 47.2599 52.93 55.4399 52.93C65.1599 52.93 67.7899 59.79 67.7899 68.07V70.44H50.7599V70.45ZM60.0299 65.25C60.0299 62.07 59.4399 59.19 55.3999 59.19C51.4899 59.19 50.81 62.12 50.81 65.25V65.65H60.0299V65.25Z" fill="#353535"/>
<path d="M80.6199 83.17C76.9899 83.17 72.8099 82.51 71.3599 82.06V76.71C72.4999 76.76 76.6699 77.26 80.2199 77.26C83.3999 77.26 84.4399 76.45 84.4399 74.69C84.4399 72.97 83.6199 72.62 80.3499 71.26L78.2599 70.4C73.4499 68.33 70.95 65.86 70.95 61.11C70.95 54.8 74.9899 52.94 81.6199 52.94C85.4399 52.94 89.1599 53.55 90.7899 54.1V59.6C87.6999 59.3 85.07 59.1 82.34 59.1C79.8 59.1 78.5199 59.2 78.5199 60.92C78.5199 62.43 79.34 62.79 82.06 63.95L84.3299 64.86C90.0999 67.18 92.0499 69.5 92.0499 74.04C92.0699 80.19 88.4299 83.17 80.6199 83.17Z" fill="#353535"/>
<path d="M104.65 83.17C101.02 83.17 96.84 82.51 95.39 82.06V76.71C96.53 76.76 100.7 77.26 104.25 77.26C107.43 77.26 108.47 76.45 108.47 74.69C108.47 72.97 107.65 72.62 104.38 71.26L102.29 70.4C97.48 68.33 94.98 65.86 94.98 61.11C94.98 54.8 99.02 52.94 105.65 52.94C109.47 52.94 113.19 53.55 114.82 54.1V59.6C111.73 59.3 109.1 59.1 106.37 59.1C103.83 59.1 102.55 59.2 102.55 60.92C102.55 62.43 103.37 62.79 106.09 63.95L108.36 64.86C114.13 67.18 116.08 69.5 116.08 74.04C116.1 80.19 112.46 83.17 104.65 83.17Z" fill="#353535"/>
<path d="M127.12 70.45V70.85C127.12 74.63 127.57 76.7 133.16 76.7C135.79 76.7 138.52 76.5 142.88 76.14V81.94C140.88 82.5 137.25 83.2 132.8 83.2C123.31 83.2 119.31 79.52 119.31 68.97V67.41C119.31 57.37 123.62 52.93 131.8 52.93C141.52 52.93 144.15 59.79 144.15 68.07V70.44H127.12V70.45ZM136.38 65.25C136.38 62.07 135.79 59.19 131.75 59.19C127.84 59.19 127.16 62.12 127.16 65.25V65.65H136.38V65.25V65.25Z" fill="#353535"/>
<path d="M160.16 61.52L164.75 53.7H172.83L164.11 68.08L172.69 82.46H163.92L159.01 74.23L154.2 82.46H146.12L155.11 67.68L146.75 53.7H155.52L160.16 61.52Z" fill="#353535"/>
<path d="M220.74 82.46H210.43L206.48 64.65C206.12 62.98 205.8 61.07 205.53 59.5H205.39C205.12 61.06 204.8 62.98 204.44 64.65L200.53 82.46H190.17L184.54 44.97H192.99L195.76 65.46C196.08 67.88 196.35 70.46 196.58 72.63H196.76C197.21 70.41 197.62 68.09 198.08 65.97L201.12 52.04H209.89L212.93 66.07C213.38 68.14 213.84 70.46 214.25 72.63H214.43C214.61 70.41 214.88 68.04 215.2 65.46L218.02 44.97H226.38L220.74 82.46Z" fill="#353535"/>
<path d="M242.93 82.46V80.59C241.25 81.85 238.25 83.21 234.8 83.21C229.89 83.21 227.22 80.43 227.22 74.98V73.82C227.22 66.15 232.49 65.24 239.85 65.24H242.26V63.68C242.26 60.15 241.58 59.44 237.49 59.44C235.17 59.44 232.04 59.59 229.13 59.94V54.69C230.58 54.08 234.76 52.92 239.12 52.92C247.2 52.92 250.16 55.85 250.16 63.67V82.44H242.93V82.46ZM242.53 69.79H239.9C236.31 69.79 234.77 70.24 234.77 73.52V74.68C234.77 76.95 236 77.61 237.72 77.61C239.76 77.61 241.76 76.75 242.53 76.25V69.79Z" fill="#353535"/>
<path d="M265.76 83.22C260.27 83.22 257.86 80.8 257.86 74.44V59.96L253.36 59.51V53.71H257.86V46.44H265.76V53.71H271.57V59.97H265.76V74.35C265.76 76.72 265.9 77.23 267.9 77.23C269.13 77.23 270.9 77.13 271.53 77.03V82.43C270.85 82.61 268.4 83.22 265.76 83.22Z" fill="#353535"/>
<path d="M282.11 70.45V70.85C282.11 74.63 282.56 76.7 288.15 76.7C290.78 76.7 293.51 76.5 297.87 76.14V81.94C295.87 82.5 292.24 83.2 287.79 83.2C278.3 83.2 274.3 79.52 274.3 68.97V67.41C274.3 57.37 278.61 52.93 286.79 52.93C296.51 52.93 299.14 59.79 299.14 68.07V70.44H282.11V70.45ZM291.37 65.25C291.37 62.07 290.78 59.19 286.74 59.19C282.83 59.19 282.15 62.12 282.15 65.25V65.65H291.37V65.25V65.25Z" fill="#353535"/>
<path d="M311.36 61.62V82.46H303.46V53.7H310.82V56.07C313.36 53.5 316.54 52.94 319.36 52.94V60.31C316.5 60.31 313.41 60.86 311.36 61.62Z" fill="#353535"/>
</svg>
